<?xml version="1.0" encoding="UTF-8" standalone="no"?>
<!-- Created with Inkscape (http://www.inkscape.org/) -->

<svg
   width="131.43893"
   height="126.80489"
   viewBox="0 0 131.43893 126.80489"
   version="1.1"
   id="svg1"
   xmlns:inkscape="http://www.inkscape.org/namespaces/inkscape"
   xmlns:sodipodi="http://sodipodi.sourceforge.net/DTD/sodipodi-0.dtd"
   xmlns="http://www.w3.org/2000/svg"
   xmlns:svg="http://www.w3.org/2000/svg"
   xmlns:ns3="http://www.iki.fi/pav/software/textext/">
  <sodipodi:namedview
     id="namedview1"
     pagecolor="#ffffff"
     bordercolor="#000000"
     borderopacity="0.25"
     inkscape:showpageshadow="2"
     inkscape:pageopacity="0.0"
     inkscape:pagecheckerboard="0"
     inkscape:deskcolor="#d1d1d1"
     inkscape:document-units="px"
     inkscape:zoom="2.0522669"
     inkscape:cx="251.67291"
     inkscape:cy="272.13809"
     inkscape:window-width="1920"
     inkscape:window-height="974"
     inkscape:window-x="-11"
     inkscape:window-y="-11"
     inkscape:window-maximized="1"
     inkscape:current-layer="layer1" />
  <defs
     id="defs1">
    <marker
       style="overflow:visible"
       id="marker13"
       refX="0"
       refY="0"
       orient="auto-start-reverse"
       inkscape:stockid="Triangle arrow"
       markerWidth="1"
       markerHeight="1"
       viewBox="0 0 1 1"
       inkscape:isstock="true"
       inkscape:collect="always"
       preserveAspectRatio="xMidYMid">
      <path
         transform="scale(0.5)"
         style="fill:context-stroke;fill-rule:evenodd;stroke:context-stroke;stroke-width:1pt"
         d="M 5.77,0 -2.88,5 V -5 Z"
         id="path13" />
    </marker>
    <marker
       style="overflow:visible"
       id="marker11"
       refX="0"
       refY="0"
       orient="auto-start-reverse"
       inkscape:stockid="Triangle arrow"
       markerWidth="1"
       markerHeight="1"
       viewBox="0 0 1 1"
       inkscape:isstock="true"
       inkscape:collect="always"
       preserveAspectRatio="xMidYMid">
      <path
         transform="scale(0.5)"
         style="fill:context-stroke;fill-rule:evenodd;stroke:context-stroke;stroke-width:1pt"
         d="M 5.77,0 -2.88,5 V -5 Z"
         id="path11" />
    </marker>
    <marker
       style="overflow:visible"
       id="Triangle"
       refX="0"
       refY="0"
       orient="auto-start-reverse"
       inkscape:stockid="Triangle arrow"
       markerWidth="1"
       markerHeight="1"
       viewBox="0 0 1 1"
       inkscape:isstock="true"
       inkscape:collect="always"
       preserveAspectRatio="xMidYMid">
      <path
         transform="scale(0.5)"
         style="fill:context-stroke;fill-rule:evenodd;stroke:context-stroke;stroke-width:1pt"
         d="M 5.77,0 -2.88,5 V -5 Z"
         id="path135" />
    </marker>
  </defs>
  <g
     inkscape:label="图层 1"
     inkscape:groupmode="layer"
     id="layer1"
     transform="translate(-181.66443,-196.80864)">
    <g
       transform="matrix(1.33333,0,0,1.33333,147.06974,142.5053)"
       ns3:version="1.10.2"
       ns3:texconverter="typst"
       ns3:pdfconverter="inkscape"
       ns3:text="$x_i^H$"
       ns3:preamble="C:\Users\ykxie\AppData\Roaming\inkscape\extensions\textext\default_packages.tex"
       ns3:scale="1.0"
       ns3:alignment="middle center"
       ns3:stroke-to-path="0"
       id="g3106"
       ns3:jacobian_sqrt="1.33333"
       inkscape:export-filename="齐次性.svg"
       inkscape:export-xdpi="108.43412"
       inkscape:export-ydpi="108.43412">
      <g
         id="g2918">
        <g
           transform="translate(70.8662,78.3792)"
           id="g8367">
          <g
             class="typst-text"
             transform="scale(1,-1)"
             id="g4423">
            <g
               id="g5494">
              <path
                 d="M 5.797,4.103 C 5.797,4.609 5.302,4.862 4.752,4.862 4.279,4.862 3.905,4.609 3.619,4.103 3.388,4.609 3.003,4.862 2.442,4.862 1.903,4.862 1.4629999,4.609 1.111,4.114 0.814,3.685 0.65999997,3.366 0.65999997,3.157 0.65999997,3.058 0.715,3.003 0.825,3.003 0.924,3.003 0.99,3.058 1.012,3.157 1.221,3.795 1.683,4.5429997 2.42,4.5429997 2.783,4.5429997 2.9589999,4.312 2.9589999,3.861 2.9589999,3.6299999 2.761,2.772 2.376,1.298 2.189,0.561 1.859,0.198 1.386,0.198 c -0.154,0 -0.297,0.033 -0.418,0.088 0.286,0.11 0.429,0.308 0.429,0.594 0,0.286 -0.143,0.429 -0.44,0.429 -0.363,0 -0.638,-0.308 -0.638,-0.671 0,-0.506 0.51699997,-0.759 1.056,-0.759 0.462,0 0.836,0.253 1.133,0.759 0.209,-0.506 0.605,-0.759 1.177,-0.759 0.528,0 0.968,0.253 1.32,0.748 0.297,0.429 0.451,0.748 0.451,0.957 0,0.099 -0.055,0.154 -0.165,0.154 C 5.192,1.738 5.137,1.683 5.104,1.584 4.917,0.957 4.422,0.198 3.707,0.198 c -0.3630001,0 -0.55,0.21999998 -0.55,0.671 0,0.143 0.055,0.4509999 0.176,0.9459999 L 3.707,3.3 c 0.209,0.825 0.55,1.2429997 1.034,1.2429997 0.154,0 0.297,-0.033 0.418,-0.088 -0.297,-0.099 -0.44,-0.297 -0.44,-0.594 0,-0.286 0.154,-0.429 0.451,-0.429 0.352,0 0.627,0.319 0.627,0.6710003 z"
                 id="path9256" />
            </g>
          </g>
        </g>
        <g
           transform="translate(77.1582,74.3087)"
           id="g6546">
          <g
             class="typst-text"
             transform="scale(1,-1)"
             id="g322">
            <g
               id="g9382">
              <path
                 d="m 7.392,5.1205 c 0,0.0924 -0.0539,0.1386 -0.154,0.1386 -0.1848,0 -0.8162,-0.0308 -1.001,-0.0308 -0.3542,0 -0.8393,0.0308 -1.001,0.0308 -0.1309,0 -0.1925,-0.0693 -0.1925,-0.2002 0,-0.0847 0.0539,-0.1232 0.1539998,-0.1309 L 5.6056,4.9126 C 5.698,4.9049 5.7519,4.9049 5.7519,4.8356 L 5.2745,2.9029 H 2.7797 L 3.2186,4.6277 C 3.2571,4.7817 3.3341,4.8741 3.4496,4.9126 3.4881,4.9203 3.619,4.928 3.8576999,4.928 4.0271,4.928 4.1195,4.9511 4.1195,5.1205 4.1195,5.2129 4.0656,5.2591 3.9654999,5.2591 3.773,5.2591 3.157,5.2283 2.9645,5.2283 2.6026,5.2283 2.1252,5.2591 1.9557999,5.2591 1.8326,5.2591 1.771,5.1898 1.771,5.0589 1.771,4.9742 1.8249,4.9357 1.925,4.928 L 2.3331,4.9126 C 2.4255,4.9049 2.4794,4.9049 2.4794,4.8356 L 1.4322,0.6314 C 1.3937,0.4774 1.3167,0.385 1.2012,0.3542 1.1626999,0.3388 1.0241,0.3311 0.7931,0.3311 H 0.6622 C 0.5775,0.3234 0.5313,0.2618 0.5313,0.1463 0.5313,0.0462 0.5852,0 0.6853,0 0.8701,0 1.4938,0.0308 1.6786,0.0308 2.0405,0.0308 2.5179,0 2.6873,0 c 0.1308999,0 0.1925,0.0616 0.1925,0.1925 0,0.0847 -0.0462,0.1309 -0.1309,0.1386 H 2.6026 c -0.2772001,0 -0.4312,-0.0077 -0.4312,0.1001 L 2.7027,2.5641 H 5.1898 L 4.7047,0.6314 C 4.6662,0.4774 4.5892,0.385 4.4737,0.3542 4.4351997,0.3388 4.3043,0.3311 4.0656,0.3311 H 3.9424 C 3.85,0.3234 3.8037999,0.2618 3.8037999,0.1463 3.8037999,0.0462 3.8576999,0 3.9578,0 4.1426,0 4.7663,0.0308 4.9511,0.0308 5.313,0.0308 5.7981,0 5.9674997,0 6.0907,0 6.1523,0.0616 6.1523,0.1925 c 0,0.0847 -0.0462,0.1309 -0.1309,0.1386 H 5.8751 c -0.2772,0 -0.4312,-0.0077 -0.4312,0.1001 0,0 0.0077,0.0308 0.0308,0.1617 l 1.0087,4.0117 c 0.0385,0.1617 0.1078,0.2618 0.2079,0.3003 0.0385,0.0154 0.1771,0.0231 0.4081,0.0231 0.2079,0 0.2926,0.0308 0.2926,0.1925 z"
                 id="path9598" />
            </g>
          </g>
        </g>
        <g
           transform="translate(77.1582,81.1738)"
           id="g8014">
          <g
             class="typst-text"
             transform="scale(1,-1)"
             id="g6363">
            <g
               id="g9162">
              <path
                 d="m 2.5025,4.7817 c 0,0.1848 -0.1463,0.3234 -0.3311,0.3234 -0.231,0 -0.4543,-0.2156 -0.4543,-0.4466 0,-0.1848 0.1463,-0.3234 0.3311,-0.3234 0.231,0 0.4543,0.2156 0.4543,0.4466 z M 1.4784,3.4187999 C 1.1165,3.4187999 0.8316,3.234 0.6237,2.8644 0.4466,2.5564 0.3619,2.3408 0.3619,2.2175999 0.3619,2.1329 0.4158,2.0944 0.5159,2.0944 c 0.0847,0 0.1386,0.0462 0.1694,0.1386 0.1771,0.6083 0.4312,0.9086 0.77,0.9086 0.1078,0 0.1617,-0.077 0.1617,-0.2387 C 1.617,2.8028 1.54,2.5564 1.386,2.156 L 0.9086,0.9317 C 0.8624,0.8085 0.8393,0.7007 0.8393,0.6006 c 0,-0.40040001 0.3465,-0.6776 0.7469,-0.6776 0.3619,0 0.6391,0.1848 0.847,0.5621 C 2.6103,0.7931 2.695,1.001 2.695,1.1165 2.695,1.2012 2.6411,1.2474 2.541,1.2474 2.4948,1.2397 2.4409,1.2012 2.387,1.1242 2.3792999,1.1165 2.3716,1.1011 2.3716,1.0934 2.1945,0.5005 1.9404,0.20019999 1.6093,0.20019999 c -0.1078,0 -0.1617,0.077 -0.1617,0.23100001 0,0.1155 0.0385,0.2772 0.1232,0.4774 l 0.6083,1.5785 c 0.0308,0.0847 0.0462,0.1694 0.0462,0.2541 0,0.4004 -0.3465,0.6775999 -0.7469,0.6775999 z"
                 id="path7407" />
            </g>
          </g>
        </g>
      </g>
      <defs
         id="id-00ce846d-5fdd-4796-8806-4394cd810390" />
    </g>
    <g
       transform="matrix(1.33333,0,0,1.33333,87.645732,176.84493)"
       ns3:version="1.10.2"
       ns3:texconverter="typst"
       ns3:pdfconverter="inkscape"
       ns3:text="$p_1$"
       ns3:preamble="C:\Users\ykxie\AppData\Roaming\inkscape\extensions\textext\default_packages.tex"
       ns3:scale="1.0"
       ns3:alignment="middle center"
       ns3:stroke-to-path="0"
       id="g210"
       ns3:jacobian_sqrt="1.33333">
      <g
         id="g5570">
        <g
           transform="translate(70.8662,78.3792)"
           id="g7122">
          <g
             class="typst-text"
             transform="scale(1,-1)"
             id="g3373">
            <g
               id="g9878">
              <path
                 d="M 3.905,4.862 C 3.421,4.862 2.9589999,4.609 2.508,4.103 2.387,4.609 2.046,4.862 1.507,4.862 1.056,4.862 0.726,4.499 0.495,3.784 0.385,3.421 0.32999998,3.212 0.32999998,3.146 c 0,-0.099 0.055,-0.154 0.17600002,-0.154 0.055,0 0.088,0.011 0.121,0.033 C 0.682,3.124 0.715,3.201 0.726,3.2779999 0.924,4.114 1.177,4.532 1.474,4.532 c 0.1979999,0 0.297,-0.154 0.297,-0.451 0,-0.165 -0.022,-0.352 -0.077,-0.55 l -1.21,-4.829 c -0.099,-0.363 -0.11,-0.407 -0.539,-0.407 -0.198,0 -0.297,-0.088 -0.297,-0.253 0,-0.121 0.066,-0.176 0.18700001,-0.176 C 0,-2.134 0.572,-2.101 0.737,-2.101 c 0.209,0 0.869,-0.033 1.0779999,-0.033 C 1.98,-2.134 2.057,-2.046 2.057,-1.87 c 0,0.11 -0.099,0.165 -0.308,0.165 -0.198,0 -0.495,-0.011 -0.495,0.121 0,0.143 0.451,1.87 0.495,2.057 0.22,-0.407 0.55,-0.616 0.99,-0.616 0.715,0 1.342,0.363 1.892,1.1 C 5.137,1.628 5.39,2.343 5.39,3.08 5.39,4.037 4.818,4.862 3.905,4.862 Z M 3.872,4.532 c 0.429,0 0.649,-0.33 0.649,-0.979 C 4.521,3.256 4.455,2.86 4.334,2.365 4.081,1.408 3.762,0.781 3.377,0.462 3.146,0.275 2.937,0.176 2.728,0.176 2.409,0.176 2.189,0.319 2.068,0.616 1.969,0.847 1.914,1.012 1.914,1.1 L 2.475,3.399 C 2.53,3.641 2.728,3.894 3.036,4.147 3.3439999,4.4 3.619,4.532 3.872,4.532 Z"
                 id="path8416" />
            </g>
          </g>
        </g>
        <g
           transform="translate(76.3992,81.0962)"
           id="g9298">
          <g
             class="typst-text"
             transform="scale(1,-1)"
             id="g5251">
            <g
               id="g7579">
              <path
                 d="M 2.3331,5.1128 C 2.002,4.7894 1.5092,4.6277 0.8393,4.6277 V 4.2889 c 0.4543,0 0.8161999,0.0693 1.0934,0.2002 V 0.6545 C 1.9327,0.55439997 1.925,0.4928 1.9018999,0.462 1.8634,0.3773 1.6324,0.3311 1.2089,0.3311 H 0.8932 V 0 L 2.2638,0.0308 3.6421,0 V 0.3311 H 3.3264 C 2.9029,0.3311 2.6719,0.3773 2.6257,0.462 2.6103,0.4928 2.6026,0.5544 2.6026,0.6545 v 4.2119 c 0,0.2079 -0.0308,0.2464 -0.2695,0.2464 z"
                 id="path8243" />
            </g>
          </g>
        </g>
      </g>
      <defs
         id="id-65a8523b-b08d-4c89-9d47-0ded6632eaab" />
    </g>
    <g
       transform="matrix(1.33333,0,0,1.33333,204.48256,177.2336)"
       ns3:version="1.10.2"
       ns3:texconverter="typst"
       ns3:pdfconverter="inkscape"
       ns3:text="$p_n$"
       ns3:preamble="C:\Users\ykxie\AppData\Roaming\inkscape\extensions\textext\default_packages.tex"
       ns3:scale="1.0"
       ns3:alignment="middle center"
       ns3:stroke-to-path="0"
       id="g8810"
       ns3:jacobian_sqrt="1.33333">
      <g
         id="g8217">
        <g
           transform="translate(70.8662,78.3792)"
           id="g6793">
          <g
             class="typst-text"
             transform="scale(1,-1)"
             id="g1365">
            <g
               id="g881">
              <path
                 d="M 3.905,4.862 C 3.421,4.862 2.9589999,4.609 2.508,4.103 2.387,4.609 2.046,4.862 1.507,4.862 1.056,4.862 0.726,4.499 0.495,3.784 0.385,3.421 0.32999998,3.212 0.32999998,3.146 c 0,-0.099 0.055,-0.154 0.17600002,-0.154 0.055,0 0.088,0.011 0.121,0.033 C 0.682,3.124 0.715,3.201 0.726,3.2779999 0.924,4.114 1.177,4.532 1.474,4.532 c 0.1979999,0 0.297,-0.154 0.297,-0.451 0,-0.165 -0.022,-0.352 -0.077,-0.55 l -1.21,-4.829 c -0.099,-0.363 -0.11,-0.407 -0.539,-0.407 -0.198,0 -0.297,-0.088 -0.297,-0.253 0,-0.121 0.066,-0.176 0.18700001,-0.176 C 0,-2.134 0.572,-2.101 0.737,-2.101 c 0.209,0 0.869,-0.033 1.0779999,-0.033 C 1.98,-2.134 2.057,-2.046 2.057,-1.87 c 0,0.11 -0.099,0.165 -0.308,0.165 -0.198,0 -0.495,-0.011 -0.495,0.121 0,0.143 0.451,1.87 0.495,2.057 0.22,-0.407 0.55,-0.616 0.99,-0.616 0.715,0 1.342,0.363 1.892,1.1 C 5.137,1.628 5.39,2.343 5.39,3.08 5.39,4.037 4.818,4.862 3.905,4.862 Z M 3.872,4.532 c 0.429,0 0.649,-0.33 0.649,-0.979 C 4.521,3.256 4.455,2.86 4.334,2.365 4.081,1.408 3.762,0.781 3.377,0.462 3.146,0.275 2.937,0.176 2.728,0.176 2.409,0.176 2.189,0.319 2.068,0.616 1.969,0.847 1.914,1.012 1.914,1.1 L 2.475,3.399 C 2.53,3.641 2.728,3.894 3.036,4.147 3.3439999,4.4 3.619,4.532 3.872,4.532 Z"
                 id="path8556" />
            </g>
          </g>
        </g>
        <g
           transform="translate(76.3992,81.0962)"
           id="g7228">
          <g
             class="typst-text"
             transform="scale(1,-1)"
             id="g4388">
            <g
               id="g863">
              <path
                 d="M 1.2628,3.3957 C 1.0087,3.3957 0.80079997,3.2570999 0.6391,2.9722 0.5313,2.7797 0.4466,2.5795 0.3927,2.3562 0.3696,2.2714999 0.3619,2.2253 0.3619,2.2099 c 0,-0.0847 0.0539,-0.1309 0.1617,-0.1309 0.1463,0 0.154,0.0847 0.1925,0.2463999 C 0.847,2.8567 1.0241,3.1262 1.2474,3.1262 c 0.1463,0 0.2155999,-0.1155 0.2155999,-0.3465 0,-0.0847 -0.0385,-0.2849 -0.1231999,-0.616 L 0.9317,0.5159 C 0.8778,0.308 0.8547,0.20019999 0.8547,0.1925 c 0,-0.1771 0.10010003,-0.2695 0.2926,-0.2695 0.1463,0 0.2541,0.0616 0.3234,0.1848 C 1.4938,0.154 1.54,0.3157 1.6093,0.5852 L 1.771,1.2628 C 1.8634,1.6247 1.9173,1.8249 1.9327,1.8711 1.9943,2.0713 2.0867,2.2638 2.2175999,2.4409 2.541,2.8952 2.9106,3.1262 3.3341,3.1262 3.6113,3.1262 3.7498999,2.9568 3.7498999,2.6257 3.7498999,2.3253999 3.6036,1.7941 3.3033,1.0241 3.2263,0.8239 3.1878,0.6853 3.1878,0.6006 c 0,-0.4158 0.3388,-0.6776 0.7546,-0.6776 0.3619,0 0.6545,0.1848 0.8624,0.5544 C 4.9818997,0.7931 5.0666,1.001 5.0666,1.1087999 5.0666,1.1935 5.0127,1.2397 4.9126,1.2397 4.8587,1.232 4.8048,1.1935 4.7509,1.1165 4.7432,1.1087999 4.7432,1.0934 4.7432,1.0857 4.5661,0.4928 4.3043,0.1925 3.9654999,0.1925 c -0.1078,0 -0.1617,0.077 -0.1617,0.2387 0,0.1078 0.0616,0.308 0.1771001,0.6006 0.2695,0.6853 0.4004,1.1781 0.4004,1.4707 0,0.3542 -0.1232,0.6006 -0.3619,0.7315 C 3.8269,3.3418 3.6036,3.3957 3.3648999,3.3957 2.8644,3.3957 2.4409,3.1801 2.1021,2.7489 2.0328,3.1262 1.7017,3.3957 1.2628,3.3957 Z"
                 id="path233" />
            </g>
          </g>
        </g>
      </g>
      <defs
         id="id-040e1877-47ec-44fa-b5b4-7cbf3fef824e" />
    </g>
    <g
       transform="matrix(1.33333,0,0,1.33333,145.45641,96.747295)"
       ns3:version="1.10.2"
       ns3:texconverter="typst"
       ns3:pdfconverter="inkscape"
       ns3:text="$dots.h.c$"
       ns3:preamble="C:\Users\ykxie\AppData\Roaming\inkscape\extensions\textext\default_packages.tex"
       ns3:scale="1.0"
       ns3:alignment="middle center"
       ns3:stroke-to-path="0"
       id="g9416"
       ns3:jacobian_sqrt="1.33333">
      <g
         id="g3006">
        <g
           transform="translate(70.8662,78.3792)"
           id="g8735">
          <g
             class="typst-text"
             transform="scale(1,-1)"
             id="g5537">
            <g
               id="g8837">
              <path
                 d="m 7.92,2.75 c 0,0.33 -0.286,0.583 -0.616,0.583 -0.341,0 -0.627,-0.253 -0.627,-0.583 0,-0.33 0.286,-0.583 0.627,-0.583 0.33,0 0.616,0.253 0.616,0.583 z m -3.036,0 c 0,0.33 -0.286,0.583 -0.616,0.583 -0.341,0 -0.616,-0.253 -0.616,-0.583 0,-0.33 0.275,-0.583 0.616,-0.583 0.33,0 0.616,0.253 0.616,0.583 z m -3.025,0 c 0,0.33 -0.286,0.583 -0.627,0.583 -0.33,0 -0.616,-0.253 -0.616,-0.583 0,-0.33 0.286,-0.583 0.616,-0.583 0.33,0 0.627,0.253 0.627,0.583 z"
                 id="path5775" />
            </g>
          </g>
        </g>
      </g>
      <defs
         id="id-bf8990e3-517a-4636-b76a-9693a3dc8488" />
    </g>
    <path
       style="fill:none;stroke:#000000;marker-end:url(#Triangle)"
       d="m 199.29181,269.94539 35.08316,-19.10596"
       id="path9" />
    <path
       style="fill:none;stroke:#000000;marker-end:url(#marker11)"
       d="M 291.87236,270.3845 263.61093,250.83943"
       id="path10" />
    <path
       style="fill:none;stroke:#000000;marker-end:url(#marker13)"
       d="m 245.63509,204.53694 v 26.26634"
       id="path12" />
    <g
       transform="matrix(1.33333,0,0,1.33333,110.83463,210.41382)"
       ns3:version="1.10.2"
       ns3:texconverter="typst"
       ns3:pdfconverter="inkscape"
       ns3:text="$sum_(j=1)^H epsilon_(i j)=1$"
       ns3:preamble="C:\Users\ykxie\AppData\Roaming\inkscape\extensions\textext\default_packages.tex"
       ns3:scale="1.0"
       ns3:alignment="middle center"
       ns3:stroke-to-path="0"
       id="g7790"
       ns3:jacobian_sqrt="1.33333">
      <g
         id="g9020">
        <g
           transform="translate(70.8662,78.3792)"
           id="g3530">
          <g
             class="typst-text"
             transform="scale(1,-1)"
             id="g5302">
            <g
               id="g9331">
              <path
                 d="M 0.616,7.843 4.587,2.376 0.737,-2.387 c -0.077,-0.088 -0.11,-0.154 -0.11,-0.198 0,-0.11 0.11,-0.165 0.341,-0.165 h 9.075 l 0.968,2.805 H 10.637 C 10.493999,-0.363 10.263,-0.726 9.922,-1.045 9.075,-1.826 7.909,-2.068 6.215,-2.068 H 1.6719999 L 5.39,2.552 C 5.467,2.64 5.5,2.706 5.5,2.75 5.5,2.794 5.478,2.849 5.423,2.9259999 L 1.925,7.722 H 6.16 c 1.342,0 2.244,-0.121 3.234,-0.638 0.583,-0.308 0.99,-0.803 1.243,-1.474 h 0.374 L 10.043,8.25 H 0.968 C 0.627,8.25 0.616,8.206 0.616,7.843 Z"
                 id="path7112" />
            </g>
          </g>
        </g>
        <g
           transform="translate(82.4822,72.8792)"
           id="g3718">
          <g
             class="typst-text"
             transform="scale(1,-1)"
             id="g1841">
            <g
               id="g3415">
              <path
                 d="m 7.392,5.1205 c 0,0.0924 -0.0539,0.1386 -0.154,0.1386 -0.1848,0 -0.8162,-0.0308 -1.001,-0.0308 -0.3542,0 -0.8393,0.0308 -1.001,0.0308 -0.1309,0 -0.1925,-0.0693 -0.1925,-0.2002 0,-0.0847 0.0539,-0.1232 0.1539998,-0.1309 L 5.6056,4.9126 C 5.698,4.9049 5.7519,4.9049 5.7519,4.8356 L 5.2745,2.9029 H 2.7797 L 3.2186,4.6277 C 3.2571,4.7817 3.3341,4.8741 3.4496,4.9126 3.4881,4.9203 3.619,4.928 3.8576999,4.928 4.0271,4.928 4.1195,4.9511 4.1195,5.1205 4.1195,5.2129 4.0656,5.2591 3.9654999,5.2591 3.773,5.2591 3.157,5.2283 2.9645,5.2283 2.6026,5.2283 2.1252,5.2591 1.9557999,5.2591 1.8326,5.2591 1.771,5.1898 1.771,5.0589 1.771,4.9742 1.8249,4.9357 1.925,4.928 L 2.3331,4.9126 C 2.4255,4.9049 2.4794,4.9049 2.4794,4.8356 L 1.4322,0.6314 C 1.3937,0.4774 1.3167,0.385 1.2012,0.3542 1.1626999,0.3388 1.0241,0.3311 0.7931,0.3311 H 0.6622 C 0.5775,0.3234 0.5313,0.2618 0.5313,0.1463 0.5313,0.0462 0.5852,0 0.6853,0 0.8701,0 1.4938,0.0308 1.6786,0.0308 2.0405,0.0308 2.5179,0 2.6873,0 c 0.1308999,0 0.1925,0.0616 0.1925,0.1925 0,0.0847 -0.0462,0.1309 -0.1309,0.1386 H 2.6026 c -0.2772001,0 -0.4312,-0.0077 -0.4312,0.1001 L 2.7027,2.5641 H 5.1898 L 4.7047,0.6314 C 4.6662,0.4774 4.5892,0.385 4.4737,0.3542 4.4351997,0.3388 4.3043,0.3311 4.0656,0.3311 H 3.9424 C 3.85,0.3234 3.8037999,0.2618 3.8037999,0.1463 3.8037999,0.0462 3.8576999,0 3.9578,0 4.1426,0 4.7663,0.0308 4.9511,0.0308 5.313,0.0308 5.7981,0 5.9674997,0 6.0907,0 6.1523,0.0616 6.1523,0.1925 c 0,0.0847 -0.0462,0.1309 -0.1309,0.1386 H 5.8751 c -0.2772,0 -0.4312,-0.0077 -0.4312,0.1001 0,0 0.0077,0.0308 0.0308,0.1617 l 1.0087,4.0117 c 0.0385,0.1617 0.1078,0.2618 0.2079,0.3003 0.0385,0.0154 0.1771,0.0231 0.4081,0.0231 0.2079,0 0.2926,0.0308 0.2926,0.1925 z"
                 id="path412" />
            </g>
          </g>
        </g>
        <g
           transform="translate(82.4822,78.2164)"
           id="g3973">
          <g
             class="typst-group"
             id="g8943">
            <g
               id="g6501">
              <g
                 transform="translate(0,5.1128)"
                 id="g7639">
                <g
                   class="typst-text"
                   transform="scale(1,-1)"
                   id="g5158">
                  <g
                     id="g6946">
                    <path
                       d="m 3.3803,4.7817 c 0,0.1848 -0.1463,0.3234 -0.3311,0.3234 -0.2233,0 -0.4543,-0.2233 -0.4543,-0.4466 0,-0.1848 0.1463,-0.3234 0.3310999,-0.3234 C 3.157,4.3351 3.3803,4.5507 3.3803,4.7817 Z M 2.2638,3.4111 C 1.8326,3.4111 1.4553,3.1262 1.2551,2.8567 1.0241,2.5256 0.9086,2.31 0.9086,2.2099 c 0,-0.0847 0.0539,-0.1232 0.154,-0.1232 0.077,0 0.1386,0.0539 0.1848,0.154 C 1.3321,2.4255 1.4322,2.5872 1.5477,2.7335 1.771,3.003 2.002,3.1339 2.2407,3.1339 2.387,3.1339 2.464,3.0184 2.464,2.7951 2.464,2.7027 2.4563,2.6257 2.4409,2.5718 L 1.7171,-0.3465 C 1.6093,-0.7854 1.2628,-1.2936 0.77,-1.2936 c -0.0693,0 -0.1309,0.0077 -0.1925,0.0231 0.1386,0.0847 0.2079,0.2156 0.2079,0.3773 0,0.2079 -0.1078,0.3157 -0.3234,0.3157 C 0.20019999,-0.5775 0,-0.80079997 0,-1.0626 c 0,-0.3542 0.385,-0.5082 0.7777,-0.5082 0.1771,0 0.3696,0.0308 0.5698,0.1001 0.4774,0.1617 0.9086,0.61600003 1.0317999,1.1319 L 3.0646,2.387 c 0.0231,0.1001 0.0385,0.1925 0.0385,0.2772 0,0.4466 -0.3927,0.7469 -0.8393,0.7469 z"
                       id="path1635" />
                  </g>
                </g>
              </g>
              <g
                 transform="translate(3.6421,5.1128)"
                 id="g6664">
                <g
                   class="typst-text"
                   transform="scale(1,-1)"
                   id="g9159">
                  <g
                     id="g4642">
                    <path
                       d="M 5.3746,2.8259 H 0.616 c -0.1232,0 -0.1848,-0.0616 -0.1848,-0.1771 0,-0.1155 0.0616,-0.1771 0.1848,-0.1771 h 4.7586 c 0.1232,0 0.1848,0.0616 0.1848,0.1771 0,0.0924 -0.0847,0.1771 -0.1848,0.1771 z m 0,-1.4476 H 0.616 c -0.1232,0 -0.1848,-0.0616 -0.1848,-0.1771 0,-0.1155 0.0616,-0.1771 0.1848,-0.1771 h 4.7586 c 0.1232,0 0.1848,0.0616 0.1848,0.1771 0,0.1001 -0.0847,0.1771 -0.1848,0.1771 z"
                       id="path2777" />
                  </g>
                </g>
              </g>
              <g
                 transform="translate(9.6327,5.1128)"
                 id="g184">
                <g
                   class="typst-text"
                   transform="scale(1,-1)"
                   id="g2046">
                  <g
                     id="g7805">
                    <path
                       d="M 2.3331,5.1128 C 2.002,4.7894 1.5092,4.6277 0.8393,4.6277 V 4.2889 c 0.4543,0 0.8161999,0.0693 1.0934,0.2002 V 0.6545 C 1.9327,0.55439997 1.925,0.4928 1.9018999,0.462 1.8634,0.3773 1.6324,0.3311 1.2089,0.3311 H 0.8932 V 0 L 2.2638,0.0308 3.6421,0 V 0.3311 H 3.3264 C 2.9029,0.3311 2.6719,0.3773 2.6257,0.462 2.6103,0.4928 2.6026,0.5544 2.6026,0.6545 v 4.2119 c 0,0.2079 -0.0308,0.2464 -0.2695,0.2464 z"
                       id="path804" />
                  </g>
                </g>
              </g>
            </g>
          </g>
        </g>
        <g
           transform="translate(98.9456,73.3962)"
           id="g9650">
          <g
             class="typst-group"
             id="g9280">
            <g
               id="g2594">
              <g
                 transform="translate(0,4.983)"
                 id="g7592">
                <g
                   class="typst-text"
                   transform="scale(1,-1)"
                   id="g5845">
                  <g
                     id="g2851">
                    <path
                       d="M 4.719,4.323 C 4.719,4.455 4.576,4.598 4.268,4.752 3.96,4.906 3.6299999,4.983 3.289,4.983 2.75,4.983 2.222,4.851 1.727,4.598 1.133,4.29 0.83599997,3.883 0.83599997,3.388 0.83599997,3.102 0.968,2.849 1.232,2.629 0.781,2.354 0.286,1.8149999 0.286,1.166 c 0,-0.902 0.858,-1.408 1.804,-1.408 0.539,0 0.99,0.121 1.353,0.352 0.473,0.297 0.715,0.572 0.715,0.803 0,0.099 -0.055,0.154 -0.165,0.154 C 3.938,1.067 3.894,1.034 3.85,0.968 3.575,0.484 3.146,0.341 2.189,0.341 1.936,0.341 1.694,0.363 1.474,0.407 1.067,0.484 0.649,0.781 0.649,1.232 c 0,0.539 0.506,1.012 0.924,1.21 0.2419999,-0.099 0.55,-0.143 0.924,-0.143 0.605,0 0.913,0.132 0.913,0.385 0,0.22 -0.275,0.33 -0.825,0.33 -0.374,0 -0.704,-0.066 -1.001,-0.198 -0.2640001,0.1429999 -0.396,0.33 -0.396,0.572 0,0.341 0.264,0.616 0.781,0.803 0.385,0.143 0.792,0.209 1.21,0.209 0.363,0 0.693,-0.099 0.968,-0.297 0.11,-0.077 0.187,-0.11 0.242,-0.11 0.165,0 0.33,0.165 0.33,0.33 z M 2.585,2.695 C 2.706,2.695 2.816,2.684 2.9259999,2.662 2.816,2.6399999 2.673,2.629 2.497,2.629 c -0.143,0 -0.275,0 -0.374,0.011 0.143,0.033 0.297,0.055 0.462,0.055 z"
                       id="path7291" />
                  </g>
                </g>
              </g>
              <g
                 transform="translate(5.126,7.7)"
                 id="g7724">
                <g
                   class="typst-text"
                   transform="scale(1,-1)"
                   id="g5679">
                  <g
                     id="g7328">
                    <path
                       d="m 2.5025,4.7817 c 0,0.1848 -0.1463,0.3234 -0.3311,0.3234 -0.231,0 -0.4543,-0.2156 -0.4543,-0.4466 0,-0.1848 0.1463,-0.3234 0.3311,-0.3234 0.231,0 0.4543,0.2156 0.4543,0.4466 z M 1.4784,3.4187999 C 1.1165,3.4187999 0.8316,3.234 0.6237,2.8644 0.4466,2.5564 0.3619,2.3408 0.3619,2.2175999 0.3619,2.1329 0.4158,2.0944 0.5159,2.0944 c 0.0847,0 0.1386,0.0462 0.1694,0.1386 0.1771,0.6083 0.4312,0.9086 0.77,0.9086 0.1078,0 0.1617,-0.077 0.1617,-0.2387 C 1.617,2.8028 1.54,2.5564 1.386,2.156 L 0.9086,0.9317 C 0.8624,0.8085 0.8393,0.7007 0.8393,0.6006 c 0,-0.40040001 0.3465,-0.6776 0.7469,-0.6776 0.3619,0 0.6391,0.1848 0.847,0.5621 C 2.6103,0.7931 2.695,1.001 2.695,1.1165 2.695,1.2012 2.6411,1.2474 2.541,1.2474 2.4948,1.2397 2.4409,1.2012 2.387,1.1242 2.3792999,1.1165 2.3716,1.1011 2.3716,1.0934 2.1945,0.5005 1.9404,0.20019999 1.6093,0.20019999 c -0.1078,0 -0.1617,0.077 -0.1617,0.23100001 0,0.1155 0.0385,0.2772 0.1232,0.4774 l 0.6083,1.5785 c 0.0308,0.0847 0.0462,0.1694 0.0462,0.2541 0,0.4004 -0.3465,0.6775999 -0.7469,0.6775999 z"
                       id="path3396" />
                  </g>
                </g>
              </g>
              <g
                 transform="translate(8.2368,7.7)"
                 id="g529">
                <g
                   class="typst-text"
                   transform="scale(1,-1)"
                   id="g5315">
                  <g
                     id="g2009">
                    <path
                       d="m 3.3803,4.7817 c 0,0.1848 -0.1463,0.3234 -0.3311,0.3234 -0.2233,0 -0.4543,-0.2233 -0.4543,-0.4466 0,-0.1848 0.1463,-0.3234 0.3310999,-0.3234 C 3.157,4.3351 3.3803,4.5507 3.3803,4.7817 Z M 2.2638,3.4111 C 1.8326,3.4111 1.4553,3.1262 1.2551,2.8567 1.0241,2.5256 0.9086,2.31 0.9086,2.2099 c 0,-0.0847 0.0539,-0.1232 0.154,-0.1232 0.077,0 0.1386,0.0539 0.1848,0.154 C 1.3321,2.4255 1.4322,2.5872 1.5477,2.7335 1.771,3.003 2.002,3.1339 2.2407,3.1339 2.387,3.1339 2.464,3.0184 2.464,2.7951 2.464,2.7027 2.4563,2.6257 2.4409,2.5718 L 1.7171,-0.3465 C 1.6093,-0.7854 1.2628,-1.2936 0.77,-1.2936 c -0.0693,0 -0.1309,0.0077 -0.1925,0.0231 0.1386,0.0847 0.2079,0.2156 0.2079,0.3773 0,0.2079 -0.1078,0.3157 -0.3234,0.3157 C 0.20019999,-0.5775 0,-0.80079997 0,-1.0626 c 0,-0.3542 0.385,-0.5082 0.7777,-0.5082 0.1771,0 0.3696,0.0308 0.5698,0.1001 0.4774,0.1617 0.9086,0.61600003 1.0317999,1.1319 L 3.0646,2.387 c 0.0231,0.1001 0.0385,0.1925 0.0385,0.2772 0,0.4466 -0.3927,0.7469 -0.8393,0.7469 z"
                       id="path2181" />
                  </g>
                </g>
              </g>
            </g>
          </g>
        </g>
        <g
           transform="translate(114.496,78.3792)"
           id="g557">
          <g
             class="typst-text"
             transform="scale(1,-1)"
             id="g4965">
            <g
               id="g6815">
              <path
                 d="M 7.678,4.037 H 0.88 C 0.704,4.037 0.616,3.949 0.616,3.784 0.616,3.619 0.704,3.531 0.88,3.531 h 6.798 c 0.176,0 0.264,0.088 0.264,0.253 0,0.132 -0.121,0.253 -0.264,0.253 z m 0,-2.068 H 0.88 C 0.704,1.969 0.616,1.881 0.616,1.716 0.616,1.551 0.704,1.4629999 0.88,1.4629999 h 6.798 c 0.176,0 0.264,0.088 0.264,0.2530001 0,0.143 -0.121,0.253 -0.264,0.253 z"
                 id="path5341" />
            </g>
          </g>
        </g>
        <g
           transform="translate(126.11,78.3792)"
           id="g6108">
          <g
             class="typst-text"
             transform="scale(1,-1)"
             id="g579">
            <g
               id="g9013">
              <path
                 d="M 2.9589999,7.3259997 C 2.508,6.864 1.848,6.633 0.979,6.633 V 6.204 c 0.572,0 1.045,0.088 1.408,0.264 V 0.902 C 2.387,0.704 2.343,0.572 2.244,0.517 2.145,0.462 1.87,0.429 1.43,0.429 H 1.045 V 0 C 1.3199999,0.022 1.914,0.033 2.827,0.033 3.74,0.033 4.334,0.022 4.609,0 V 0.429 H 4.224 C 3.773,0.429 3.498,0.462 3.41,0.517 3.322,0.572 3.267,0.704 3.267,0.902 v 6.094 c 0,0.2639998 -0.022,0.3299997 -0.3080001,0.3299997 z"
                 id="path3656" />
            </g>
          </g>
        </g>
      </g>
      <defs
         id="id-e5a39a42-f4c8-4ec6-9e00-984167acbf0c" />
    </g>
  </g>
</svg>
